PathFileType	4	(X/Y/Z)	C:\Users\WrightLab\Desktop\Jo\P5V23.trc
DataRate	CameraRate	NumFrames	NumMarkers	Units	OrigDataRate	OrigDataStartFrame	OrigNumFrames
100.00	100.00	       14	19	mm	100.00	462	       739
Frame#	Time	Headset_Front			Headset_Back			Headset_Left			Headset_Right			Left_Shoulder			Right_Shoulder			Sternum			C7			Left Elbow			Right Elbow			Left Wrist			Right Wrist			Left ASIS			Right ASIS			S2			Left Knee			Right Knee			Left Ankle			Right Ankle			
		X1	Y1	Z1	X2	Y2	Z2	X3	Y3	Z3	X4	Y4	Z4	X5	Y5	Z5	X6	Y6	Z6	X7	Y7	Z7	X8	Y8	Z8	X9	Y9	Z9	X10	Y10	Z10	X11	Y11	Z11	X12	Y12	Z12	X13	Y13	Z13	X14	Y14	Z14	X15	Y15	Z15	X16	Y16	Z16	X17	Y17	Z17	X18	Y18	Z18	X19	Y19	Z19	

462	4.610	-85.17918	1440.84229	-41.26561				6.19286	1581.98560	-166.95404	-196.02017	1542.49609	-60.73044	4.19017	1499.06873	-417.13217	-270.79431	1447.36218	-126.00909	-107.92234	1298.78455	-234.91620	-238.59187	1538.12109	-348.89090	11.48479	1291.31152	-342.19733	-307.96634	1211.19312	8.77397	19.08531	1246.49133	-536.86566	-110.74270	1125.66382	131.14729	-37.16134	926.16431	-324.77982	-267.96286	947.21869	-158.88974	-288.35721	1000.54041	-457.44028	-30.39596	495.27713	-305.22083	-399.00253	501.91135	-199.64020	-51.59833	87.24651	-334.07208	-380.70041	95.33977	-288.80981	
463	4.620	-90.90543	1441.15735	-39.27262				3.80616	1581.39465	-163.58049	-200.31073	1543.92712	-60.78125	5.16367	1498.69727	-413.61343				-109.33887	1299.29639	-233.37073	-238.21931	1538.23730	-349.32004	11.56332	1290.93567	-337.79242	-317.28897	1211.19861	5.75869	21.34579	1246.28198	-533.58716	-122.49922	1122.78027	130.95676	-36.16571	926.34802	-321.62540	-270.17261	947.42017	-157.96986	-287.11151	1000.62457	-457.65009	-28.85423	496.46375	-303.34900	-401.18671	502.13065	-199.48637	-51.50427	87.45873	-334.29004	-380.59702	95.35950	-289.15891	
464	4.630	-95.85722	1441.57214	-37.24058				1.04934	1581.75635	-160.10458	-205.24893	1544.74902	-60.73351	6.38541	1498.48523	-410.79904				-113.63650	1298.47693	-234.57553	-238.03683	1538.10681	-349.98102	11.27173	1290.70911	-335.17752	-326.61313	1211.12085	2.26287	24.18565	1246.04370	-530.73053	-134.16161	1119.79541	130.54132	-37.34306	926.14044	-318.93665	-272.10245	946.83997	-156.95776	-285.67691	1000.88086	-457.80029	-28.90339	497.14780	-301.77960	-402.55066	502.58258	-198.62091	-51.83258	87.20522	-333.87335	-380.56940	95.32284	-289.18146	
465	4.640	-101.02767	1441.94299	-35.75072				-1.53374	1581.20093	-156.36795	-210.32806	1545.49878	-61.57734	7.37107	1497.83948	-407.34903				-114.67271	1298.39294	-233.64180	-237.85214	1538.08997	-350.00046	11.15134	1290.43225	-332.48972	-334.93549	1210.46362	-0.39973	27.27157	1245.31909	-526.26074	-146.07599	1117.69580	129.16560	-39.60562	925.62329	-316.77695	-274.95438	946.78516	-157.23201	-284.25589	1000.52155	-457.51068	-29.62682	496.49323	-300.27771	-405.98859	502.08804	-198.93752	-51.93932	87.54694	-333.83603	-380.53040	95.27275	-289.19135	
466	4.650	-106.75385	1442.27820	-33.66178				-4.34262	1580.92725	-153.50206	-215.32024	1545.72009	-62.30003	8.46480	1497.52295	-403.93478	-286.00467	1448.04407	-131.10893	-117.04069	1298.02942	-231.50725	-237.57536	1538.10730	-350.39310	10.86082	1290.28918	-328.54199	-343.76050	1209.22168	-4.52281	28.81194	1244.76514	-523.16241	-158.16237	1114.69739	128.23627	-40.89265	925.49530	-314.16995	-277.20575	946.36230	-156.14188	-282.81937	1000.33966	-457.97885	-28.62218	497.33960	-297.35065	-407.01355	502.24457	-197.00140	-51.77887	87.72319	-333.36526	-380.51108	95.17818	-289.25494	
467	4.660	-112.35507	1442.63843	-31.58658				-7.23682	1581.02234	-149.79814	-218.81927	1546.25427	-61.65421	8.75185	1496.95691	-400.54675				-118.77959	1298.13660	-230.02954	-237.18224	1538.19690	-351.04706	10.97970	1289.98096	-324.22839	-352.41275	1208.98657	-8.46405	32.37611	1244.25977	-517.98773	-170.67917	1111.92529	128.22096	-40.50589	925.70624	-310.64963	-278.96927	946.48779	-159.44423	-281.32126	1000.29980	-459.08829	-28.76608	497.80017	-295.22797	-410.55664	502.18716	-197.09596	-51.36312	87.69240	-334.51422	-380.48477	95.11456	-289.30020	
468	4.670	-117.78859	1442.75696	-30.05303				-10.35546	1580.90454	-147.26402	-223.71278	1547.28650	-62.29016	9.78573	1496.31213	-396.32663	-293.60623	1447.90979	-134.31871	-121.32413	1298.34265	-228.80750	-237.15498	1538.00684	-351.55585	11.24226	1289.32129	-321.73004	-360.66910	1208.80029	-12.17723	34.37491	1244.29736	-515.01837	-182.40579	1108.93420	126.56816	-42.17757	925.21136	-307.81049	-282.58496	946.28217	-159.24432	-279.68237	999.84760	-458.70160	-28.87647	497.90549	-292.68546	-412.68961	502.52032	-198.33878	-51.63610	87.54277	-333.99979	-380.56049	94.95901	-289.60736	
469	4.680	-123.15916	1442.58630	-28.17946				-13.36184	1580.48157	-142.53424	-229.68155	1547.36487	-62.98905	10.65654	1496.13147	-393.12543	-297.60919	1448.05505	-135.27287	-123.48765	1298.02795	-225.31955	-237.14294	1538.14673	-352.16132	10.99923	1289.15906	-318.01978	-369.53598	1208.30908	-16.16835	36.95094	1244.15894	-511.63065	-195.48164	1106.85925	126.52060	-42.31994	925.06274	-305.07632	-284.84042	946.67102	-158.55144	-277.71317	999.95898	-458.88080	-29.18338	498.11639	-289.68610	-414.60196	502.38235	-198.71732	-51.93345	87.57507	-333.82657	-380.36462	94.62597	-289.42682	
470	4.690	-128.46289	1442.78809	-27.02966				-16.70568	1580.80615	-139.64136	-232.91844	1547.34277	-62.72228	11.31075	1495.75330	-390.19904	-301.72253	1448.13538	-136.88693	-125.34788	1298.26697	-223.73325	-236.91940	1538.25256	-352.35349	10.47116	1289.33032	-314.23553	-377.29422	1207.99561	-19.48737	39.96003	1243.77063	-508.30759	-207.82266	1104.10437	126.24006	-43.99317	924.72119	-301.77533	-287.51901	946.47559	-158.78404	-276.12872	999.55530	-459.56555	-30.69204	497.94040	-287.56161	-417.55765	502.22690	-199.64432	-51.14436	87.45206	-333.52133	-380.36176	94.55827	-289.44983	
471	4.700	-133.69444	1442.72205	-26.10936				-19.90063	1580.58936	-136.32083	-236.99443	1547.10339	-62.80065	11.66893	1495.35559	-386.60587				-128.17786	1298.58411	-222.80258	-236.87321	1538.16028	-352.49475	10.15960	1288.68982	-310.70740	-384.77667	1208.20410	-22.64717	41.18290	1242.68115	-502.10980	-220.05981	1101.21008	125.78761	-44.41488	924.90802	-298.91312	-290.98196	945.81042	-157.67336	-274.27725	999.64221	-460.14337	-31.63188	497.96841	-284.71799	-418.75183	502.63242	-200.05984	-51.36730	87.60374	-334.12689	-380.39691	94.48368	-289.49893	
472	4.710	-139.24646	1442.96631	-24.93309				-23.14076	1580.26465	-132.10568	-242.16431	1547.27686	-62.94645	11.72837	1494.66479	-382.99951				-130.08327	1298.60388	-220.20847	-237.01265	1538.20227	-352.75864	9.13292	1288.08813	-306.84479	-393.15964	1208.23975	-26.81096	43.27102	1242.38818	-497.78986	-232.13911	1099.23315	125.43183	-45.59484	925.13330	-296.88782	-292.38037	946.15466	-159.66980	-272.49146	999.20679	-459.75366	-33.17030	498.20673	-281.90527	-420.97821	501.86438	-200.93335	-51.36564	87.34706	-333.40414	-380.47098	94.38840	-289.84995	
473	4.720	-144.84247	1442.45361	-23.67705				-26.68307	1580.53479	-129.52130	-247.02467	1547.83997	-64.38860	12.18567	1494.56775	-379.26935	-312.67322	1448.55823	-140.66982	-132.40138	1298.82324	-217.63113	-237.24892	1538.37634	-352.94626	8.26276	1288.05457	-302.57657	-401.53098	1208.72119	-31.04434	45.56923	1242.25391	-494.04828	-244.87947	1096.75659	125.60743	-46.95274	925.05219	-294.28180	-295.20090	945.79871	-160.05441	-270.81006	998.85156	-459.33713	-33.60921	497.94910	-279.58093	-421.87607	501.36484	-202.17245	-51.78743	87.46690	-333.73932	-380.46259	94.36309	-289.85001	
474	4.730	-150.05444	1442.44897	-22.59229				-30.15485	1580.36243	-126.70471	-251.55055	1547.56934	-63.86776	12.46939	1494.09692	-375.29642				-135.14948	1298.73926	-217.38095	-237.46222	1538.56458	-352.98901	8.28402	1287.64722	-299.19098	-410.13254	1208.20886	-35.98815	47.25572	1241.57300	-488.92847	-256.74020	1094.65393	124.73151	-46.57208	925.49243	-290.99542	-297.78955	945.42688	-159.43523	-268.98013	999.30005	-459.77039	-34.22539	498.47552	-276.31015	-423.18784	501.30511	-204.03603	-51.42481	87.69169	-333.31134	-380.62866	94.14252	-289.88916	
475	4.740	-155.42635	1442.20313	-21.17991				-33.70906	1580.30383	-123.34721	-256.17975	1548.08240	-65.14617	12.53787	1494.08496	-371.62140				-138.11180	1298.15210	-215.22925	-237.60075	1538.60730	-352.97003	6.94327	1287.11206	-294.13718	-417.50220	1208.41833	-39.17247	48.67356	1241.35718	-484.36758	-269.18683	1092.90381	124.61768	-48.99135	924.89978	-288.38126	-297.02805	946.75476	-158.83093	-268.16278	998.72290	-461.16595	-34.43127	498.77100	-274.17795	-424.80945	501.16986	-205.12024	-50.94901	87.51826	-333.40570	-380.66373	94.08613	-289.94510	
